<svg aria-hidden="true" fill="currentColor" viewBox="0 0 149.79 80" xmlns="http://www.w3.org/2000/svg" class="h-10 w-auto transition-all duration-300 ease-out max-lg:my-2 lg:h-[71px] lg:translate-y-[18px]" width="135" height="72" preserveAspectRatio="xMidYMid meet" style="view-transition-name:header-logo"><path d="M24.281 79.063h124.58V24.356L125.513.937H.933v54.707z" fill="#fff"></path><path d="M0 .001h125.9l23.894 23.967V80h-125.9L.002 56.033V0zm1.867 3.198v52.057l21.48 21.545V24.744zm1.321-1.324 21.48 21.545h121.94l-21.48-21.545zm144.74 23.418H25.218v52.833h122.71z"></path><path d="M47.255 46.215c0 1.873-1.246 3.496-4.234 3.496-1.308 0-2.367-.312-3.3-.686v-2.623c.996.5 2.179.812 3.237.812.997 0 1.494-.312 1.494-.875 0-1.748-4.731-1.187-4.731-4.746 0-2.185 1.744-3.498 4.172-3.498.995 0 1.929.251 2.926.813v2.685c-1.308-.812-2.242-1.062-2.989-1.062-.872 0-1.37.313-1.37.874-.062 1.625 4.794 1 4.794 4.81z"></path><path d="M49.62 43.903c0-3.184 2.614-5.807 5.79-5.807 3.175 0 5.79 2.623 5.79 5.808 0 3.185-2.615 5.807-5.79 5.807-3.176-.062-5.79-2.622-5.79-5.807zm8.716 0c0-1.748-1.307-3.06-2.927-3.06-1.618 0-2.925 1.312-2.925 3.061 0 1.748 1.307 3.06 2.925 3.06 1.62 0 2.927-1.312 2.927-3.061z"></path><path d="M67.675 37.408v.937h3.674l-1.246 2.623h-2.366v8.493H65.06v-8.556h-1.867v-2.622h1.867v-1.061c0-3.373 1.744-5.059 4.483-5.059.685 0 1.307.125 1.868.25v2.623c-.498-.187-1.058-.25-1.62-.25-1.494 0-2.116 1-2.116 2.623z"></path><path d="M76.952 40.906v4.434c0 1.187.685 1.687 1.743 1.687.685 0 1.37-.188 1.93-.562v2.747c-.747.312-1.431.5-2.427.5-2.43 0-3.923-1.312-3.923-3.998v-4.746h-1.619v-2.622h1.62v-2.873l2.676-.687v3.56h3.674v2.622h-3.674z"></path><path d="m99.988 38.346-3.549 11.115h-2.677l-2.428-7.619-2.49 7.619h-2.678l-3.549-11.115h3.051l1.992 7.432 2.367-7.432h2.676l2.367 7.432 1.992-7.432z"></path><path d="M101.36 43.903c0-3.184 2.303-5.807 5.48-5.807 1.244 0 2.24.375 2.987 1v-.75h2.678v11.115h-2.616v-.874c-.747.687-1.805 1.124-3.112 1.124-3.052-.062-5.417-2.622-5.417-5.807zm8.717 0c0-1.748-1.308-3.06-2.927-3.06s-2.926 1.312-2.926 3.061c0 1.748 1.307 3.06 2.926 3.06 1.619 0 2.927-1.312 2.927-3.061z"></path><path d="M116.3 38.346h2.615v1.498c.81-1.498 2.303-1.748 3.611-1.748v3.184c-1.868-.5-3.548.562-3.548 2.936v5.183H116.3z"></path><path d="M130.99 47.089a9.627 9.627 0 0 0 3.549-.687l-1.37 2.81a7.296 7.296 0 0 1-2.677.5c-3.923 0-6.288-2.436-6.288-5.808 0-3.185 2.365-5.808 5.79-5.808 2.303 0 4.171 1.187 4.918 2.685v4.06h-7.844c.373 1.31 1.68 2.248 3.922 2.248zm-3.985-4.371h5.79c-.373-1.313-1.494-2.124-2.926-2.124-1.37 0-2.428.874-2.864 2.124z"></path><path d="M55.223 58.83v7.306h-2.677v-6.869c0-1.187-.872-1.873-1.743-1.873-.934 0-1.744.686-1.744 1.873v6.869h-2.676v-6.869c0-1.187-.872-1.873-1.744-1.873-.934 0-1.743.686-1.743 1.873v6.869H40.22V55.02h2.615v.812c.622-.75 1.432-1 2.49-1 1.183 0 2.18.5 2.864 1.437.871-1 1.992-1.436 3.362-1.436 2.054 0 3.673 1.623 3.673 3.996z"></path><path d="M58.025 60.579c0-3.186 2.304-5.808 5.478-5.808 1.246 0 2.243.374 2.989.999v-.75h2.677v11.115h-2.615v-.874c-.747.687-1.805 1.124-3.112 1.124-3.052 0-5.417-2.622-5.417-5.807zm8.717 0c0-1.75-1.308-3.061-2.927-3.061s-2.926 1.312-2.926 3.061c0 1.748 1.308 3.06 2.926 3.06s2.927-1.312 2.927-3.061z"></path><path d="M72.843 55.02h2.614v.812c.81-.812 1.868-1.062 2.927-1.062 2.304 0 4.17 1.748 4.17 4.122v7.18h-2.676v-6.556a2.103 2.103 0 0 0-2.117-2.123 2.102 2.102 0 0 0-2.116 2.123v6.62h-2.678V55.02h-.124z"></path><path d="M93.326 62.889c0 1.873-1.245 3.496-4.234 3.496-1.307 0-2.366-.312-3.299-.686v-2.623c.996.5 2.179.812 3.238.812.996 0 1.493-.312 1.493-.874 0-1.75-4.73-1.188-4.73-4.747 0-2.186 1.742-3.497 4.17-3.497.996 0 1.93.25 2.927.812v2.685c-1.308-.812-2.242-1.062-2.989-1.062-.872 0-1.37.312-1.37.874-.062 1.687 4.794 1.063 4.794 4.81z"></path><path d="M99.116 55.02v11.115h-2.677V55.02z"></path><path d="M101.92 60.579c0-3.186 2.615-5.808 5.79-5.808s5.79 2.622 5.79 5.807-2.615 5.807-5.79 5.807-5.79-2.622-5.79-5.807zm8.717 0c0-1.75-1.307-3.061-2.927-3.061-1.618 0-2.926 1.312-2.926 3.061 0 1.748 1.308 3.06 2.926 3.06 1.62 0 2.927-1.312 2.927-3.061z"></path><path d="M116.24 55.02h2.615v.812c.81-.812 1.868-1.062 2.927-1.062 2.303 0 4.17 1.748 4.17 4.122v7.18h-2.676v-6.556a2.103 2.103 0 0 0-2.118-2.123 2.103 2.103 0 0 0-2.116 2.123v6.62h-2.677V55.02h-.125z"></path><path d="M131.24 63.076v.437h-.933v2.623h-.499v-2.623h-.933v-.437z"></path><path d="m132.3 63.076.997 2.435.933-2.435h.623v3.06h-.498v-2.248l-.934 2.248h-.436l-.934-2.248v2.248h-.498v-3.061h.747z"></path></svg>